<?xml version="1.0" encoding="utf-8"?>
<!-- Generator: Adobe Illustrator 19.2.1, SVG Export Plug-In . SVG Version: 6.00 Build 0)  -->
<svg version="1.1" id="Layer_1" xmlns="http://www.w3.org/2000/svg" xmlns:xlink="http://www.w3.org/1999/xlink" x="0px" y="0px"
	 viewBox="0 0 1024 1024" style="enable-background:new 0 0 1024 1024;" xml:space="preserve">
<style type="text/css">
	.st0{fill:#C1203B;stroke:#FFFFFF;stroke-width:70;stroke-miterlimit:10;}
	.st1{fill:url(#SVGID_1_);}
	.st2{fill:url(#SVGID_2_);}
	.st3{fill:url(#SVGID_3_);}
	.st4{fill:url(#SVGID_4_);}
	.st5{fill:url(#SVGID_5_);}
	.st6{fill:url(#SVGID_6_);}
	.st7{fill:url(#SVGID_7_);}
	.st8{fill:url(#SVGID_8_);}
</style>
<g>
	<line class="st0" x1="508.4" y1="964.5" x2="508.4" y2="59.5"/>
	<g>
		<linearGradient id="SVGID_1_" gradientUnits="userSpaceOnUse" x1="781.4708" y1="765.7153" x2="810.9996" y2="816.8607">
			<stop  offset="0" style="stop-color:#1565C0"/>
			<stop  offset="1" style="stop-color:#0D47A1"/>
		</linearGradient>
		<path class="st1" d="M803.8,807.5c16.4-16.4,31.3-34,44.6-52.6c-19.6,3.1-40.6,5.9-62.8,8.4c-8.4,30.2-18.3,58.7-29.7,85.3
			C772.9,836.2,788.8,822.5,803.8,807.5z"/>
		<linearGradient id="SVGID_2_" gradientUnits="userSpaceOnUse" x1="756.3558" y1="163.1111" x2="825.3057" y2="282.5359">
			<stop  offset="0" style="stop-color:#1565C0"/>
			<stop  offset="1" style="stop-color:#0D47A1"/>
		</linearGradient>
		<path class="st2" d="M803.8,216.5c-17.7-17.7-36.9-33.7-57.2-47.8c12.6,26.5,23.8,55.4,33.3,86.3c0.5,1.8,1.1,3.5,1.6,5.3
			c23.7,2.6,46.1,5.6,66.9,8.9C835.1,250.5,820.3,233,803.8,216.5z"/>
		<linearGradient id="SVGID_3_" gradientUnits="userSpaceOnUse" x1="820.7562" y1="544.867" x2="895.3318" y2="674.0357">
			<stop  offset="0" style="stop-color:#1565C0"/>
			<stop  offset="1" style="stop-color:#0D47A1"/>
		</linearGradient>
		<path class="st3" d="M817.1,547c-1.4,49.7-6.4,98-14.8,143.9c34.3-4.4,64.9-9.7,90.8-15.6c0.1-0.2,0.2-0.5,0.3-0.7
			c17.2-40.8,27.8-83.6,31.4-127.6H817.1z"/>
		<linearGradient id="SVGID_4_" gradientUnits="userSpaceOnUse" x1="806.334" y1="328.8293" x2="900.1063" y2="491.2477">
			<stop  offset="0" style="stop-color:#1565C0"/>
			<stop  offset="1" style="stop-color:#0D47A1"/>
		</linearGradient>
		<path class="st4" d="M924.8,477c-3.6-44.1-14.1-86.9-31.4-127.6c-0.1-0.2-0.2-0.5-0.3-0.7c-26.6-6.1-58.2-11.4-93.6-15.9
			c9.2,46.1,15,94.7,17,144.2H924.8z"/>
		<linearGradient id="SVGID_5_" gradientUnits="userSpaceOnUse" x1="552.9469" y1="752.2024" x2="642.7148" y2="907.6849">
			<stop  offset="0" style="stop-color:#1565C0"/>
			<stop  offset="1" style="stop-color:#0D47A1"/>
		</linearGradient>
		<path class="st5" d="M642.2,908c27.2-35.5,50.6-82.6,68.3-137.6c-62.7,4.8-131.4,7.4-202.2,7.6v151.9
			C554.4,929.8,599.3,922.5,642.2,908z"/>
		<linearGradient id="SVGID_6_" gradientUnits="userSpaceOnUse" x1="519.15" y1="87.9398" x2="637.404" y2="292.7618">
			<stop  offset="0" style="stop-color:#1565C0"/>
			<stop  offset="1" style="stop-color:#0D47A1"/>
		</linearGradient>
		<path class="st6" d="M705.7,253.3c-20.6-59.2-47.8-108-79.2-142l0.2-0.2c-38.2-11.3-77.9-17-118.4-17v151.9
			C577.4,246.2,644.4,248.8,705.7,253.3z"/>
		<linearGradient id="SVGID_7_" gradientUnits="userSpaceOnUse" x1="503.3104" y1="318.9947" x2="724.2394" y2="701.6551">
			<stop  offset="0" style="stop-color:#1565C0"/>
			<stop  offset="1" style="stop-color:#0D47A1"/>
		</linearGradient>
		<path class="st7" d="M729.4,698.7c10.1-48.1,16-99.4,17.6-151.7H508.4v-70h238.1c-2.4-52.7-9.2-104.1-20.2-151.9
			c-66.1-5.6-140.5-8.8-217.9-9v391.9C587,707.8,662.6,704.5,729.4,698.7z"/>
	</g>
	<linearGradient id="SVGID_8_" gradientUnits="userSpaceOnUse" x1="724.1147" y1="762.1936" x2="100.5865" y2="238.9913">
		<stop  offset="0" style="stop-color:#212121"/>
		<stop  offset="1" style="stop-color:#424242"/>
	</linearGradient>
	<path class="st8" d="M508.4,24.2c-65.8,0-129.7,12.9-189.9,38.4C260.4,87.1,208.2,122.3,163.4,167c-35,35-64,74.4-86.8,117.7
		c-0.5,0.1-1,0.2-1.5,0.4l0.4,1.6c-6,11.5-11.6,23.3-16.7,35.4C33.4,382.3,20.5,446.2,20.5,512s12.9,129.7,38.4,189.9
		c5.1,12.1,10.7,23.9,16.7,35.4l-0.4,1.6c0.5,0.1,1,0.3,1.5,0.4c22.8,43.3,51.9,82.7,86.8,117.7c44.8,44.8,97,80,155.1,104.5
		c60.2,25.4,124.1,38.4,189.9,38.4c19.3,0,35-15.7,35-35V59.2C543.4,39.8,527.7,24.2,508.4,24.2z M287.6,699.8
		c-10.2-48.4-16.3-100.1-17.9-152.8h203.6v160.8C408.3,707.2,345.1,704.4,287.6,699.8z M123.4,674.6C106.1,633.9,95.6,591.1,92,547
		h107.7c1.4,50.3,6.6,99.2,15.1,145.5c-33.3-4-63.6-8.7-89.7-14C124.5,677.3,123.9,676,123.4,674.6z M125.1,345.4
		c26.9-5.4,58.1-10.2,92.5-14.3c-9.4,46.6-15.3,95.8-17.4,145.9H92c3.6-44.1,14.1-86.9,31.4-127.6
		C123.9,348,124.5,346.7,125.1,345.4z M270.3,477c2.4-53.1,9.3-104.8,20.5-153c56.7-4.5,118.7-7.2,182.7-7.8V477H270.3z
		 M473.4,246.2c-56.4,0.5-111,2.6-162,6c20.6-58.7,47.6-107.1,78.8-140.9l-0.2-0.2c27.1-8,55-13.2,83.4-15.6V246.2z M212.9,216.5
		c17.7-17.7,36.9-33.7,57.2-47.8c-12.6,26.5-23.8,55.4-33.3,86.3c-0.4,1.2-0.7,2.4-1.1,3.7c-23.1,2.4-45,5.1-65.6,8.1
		C182.9,249,197.2,232.2,212.9,216.5z M170.1,757.3c19.4,2.8,39.9,5.4,61.4,7.6c8.3,29.5,18.1,57.5,29.2,83.7
		c-16.8-12.4-32.8-26.1-47.8-41.1C197.2,791.8,182.9,775,170.1,757.3z M374.5,907.9c-27-35.2-50.2-82-67.9-136.5
		c52.3,3.6,108.6,5.8,166.8,6.4v150.6C439.6,925.6,406.5,918.8,374.5,907.9z"/>
</g>
</svg>
